<svg viewBox="0 0 28.01 24.66" xmlns="http://www.w3.org/2000/svg" fill="currentColor"><path d="M24.41 10.01l-4.11.1c-3.87.1-7.34-2.36-8.54-6.03L10.48.17c-.09-.27-.48-.2-.48.08l.1 4.11c.1 3.87-2.36 7.34-6.03 8.54l-3.9 1.28c-.27.09-.2.48.08.48l4.11-.1c3.87-.1 7.34 2.36 8.54 6.03l1.27 3.91c.09.27.48.2.48-.08l-.1-4.11a8.752 8.752 0 016.03-8.54l3.91-1.27c.27-.09.2-.48-.08-.48z"/><path d="M22.42 22.66a4.088 4.088 0 014.46-2.02l.83.18c.27.06.42-.32.17-.45l-.75-.41a4.088 4.088 0 01-2.02-4.46l.18-.83c.06-.27-.32-.42-.45-.17l-.41.75a4.088 4.088 0 01-4.46 2.02l-.83-.18c-.27-.06-.42.32-.17.45l.75.41c1.59.88 2.41 2.69 2.02 4.46l-.18.83c-.06.27.32.42.45.17l.41-.75zM18.91 5.57c1.07-.7 2.47-.61 3.44.21.21.18.51-.08.36-.32-.7-1.07-.61-2.47.21-3.44.18-.21-.08-.51-.32-.36-1.07.7-2.47.61-3.44-.21-.21-.18-.51.08-.36.32.7 1.07.61 2.47-.21 3.44-.18.21.08.51.32.36z"/></svg>
