<?xml version="1.0" encoding="UTF-8"?><svg id="Layer_2" xmlns="http://www.w3.org/2000/svg" xmlns:xlink="http://www.w3.org/1999/xlink" viewBox="0 0 32 32"><defs><linearGradient id="linear-gradient" x1="34.88" y1="11.11" x2="-2.88" y2="20.89" gradientUnits="userSpaceOnUse"><stop offset="0" stop-color="#cb3384"/><stop offset="1" stop-color="#3a85e6"/></linearGradient></defs><g id="Layer_1-2"><rect width="32" height="32" style="fill:url(#linear-gradient); stroke-width:0px;"/><path d="M26.4,13.68l-4.11.1c-3.87.1-7.34-2.36-8.54-6.03l-1.27-3.91c-.09-.27-.48-.2-.48.08l.1,4.11c.1,3.87-2.36,7.34-6.03,8.54l-3.91,1.27c-.27.09-.2.48.08.48l4.11-.1c3.87-.1,7.34,2.36,8.54,6.03l1.27,3.91c.09.27.48.2.48-.08l-.1-4.11c-.1-3.87,2.36-7.34,6.03-8.54l3.91-1.27c.27-.09.2-.48-.08-.48Z" style="fill:#fff; stroke-width:0px;"/><path d="M24.41,26.33c.88-1.59,2.69-2.41,4.46-2.02l.83.18c.27.06.42-.32.17-.45l-.75-.41c-1.59-.88-2.41-2.69-2.02-4.46l.18-.83c.06-.27-.32-.42-.45-.17l-.41.75c-.88,1.59-2.69,2.41-4.46,2.02l-.83-.18c-.27-.06-.42.32-.17.45l.75.41c1.59.88,2.41,2.69,2.02,4.46l-.18.83c-.06.27.32.42.45.17l.41-.75Z" style="fill:#fff; stroke-width:0px;"/><path d="M20.91,9.24c1.07-.7,2.47-.61,3.44.21.21.18.51-.08.36-.32-.7-1.07-.61-2.47.21-3.44.18-.21-.08-.51-.32-.36-1.07.7-2.47.61-3.44-.21-.21-.18-.51.08-.36.32.7,1.07.61,2.47-.21,3.44-.18.21.08.51.32.36Z" style="fill:#fff; stroke-width:0px;"/></g></svg>