<?xml version="1.0" encoding="UTF-8"?><svg id="Layer_2" xmlns="http://www.w3.org/2000/svg" width="50" height="50" viewBox="0 0 50 50"><g id="Layer_1-2"><rect x="0" width="50" height="50" style="fill:#2a2a2a;"/><path d="m37.84,22.28c.68-2.04.44-4.28-.64-6.13-1.63-2.85-4.92-4.31-8.13-3.62-2.8-3.11-7.59-3.37-10.7-.57-.99.89-1.72,2.02-2.14,3.28-2.11.43-3.93,1.75-4.99,3.62-1.65,2.84-1.28,6.43.93,8.86-.68,2.04-.45,4.28.64,6.13,1.64,2.85,4.92,4.31,8.14,3.62,1.43,1.61,3.48,2.52,5.63,2.51,3.29,0,6.2-2.12,7.21-5.25,2.11-.43,3.93-1.75,4.99-3.62,1.63-2.84,1.26-6.4-.93-8.83h0Zm-11.27,15.75c-1.31,0-2.58-.46-3.59-1.3l.18-.1,5.97-3.44c.3-.18.49-.5.49-.85v-8.41l2.52,1.46s.04.04.05.06v6.97c0,3.1-2.52,5.61-5.61,5.61Zm-12.06-5.15c-.66-1.14-.89-2.47-.67-3.76l.18.11,5.97,3.44c.3.18.67.18.97,0l7.3-4.21v2.91s-.02.06-.04.08l-6.04,3.49c-2.69,1.55-6.12.63-7.67-2.06h0Zm-1.57-13c.66-1.14,1.71-2.02,2.95-2.46v7.09c0,.35.18.67.48.84l7.26,4.19-2.52,1.46s-.06.01-.09,0l-6.03-3.48c-2.68-1.55-3.6-4.98-2.06-7.67v.03Zm20.73,4.82l-7.28-4.23,2.52-1.45s.06-.01.09,0l6.03,3.49c2.68,1.55,3.61,4.98,2.06,7.67-.65,1.13-1.68,2-2.9,2.45v-7.09c-.01-.35-.2-.66-.51-.83h0Zm2.51-3.78l-.18-.11-5.96-3.47c-.3-.18-.68-.18-.98,0l-7.29,4.21v-2.91s.01-.06.04-.08l6.03-3.48c2.69-1.55,6.12-.62,7.67,2.06.65,1.14.89,2.46.67,3.76v.02Zm-15.79,5.16l-2.52-1.45s-.04-.04-.05-.07v-6.95c0-3.1,2.52-5.62,5.63-5.61,1.31,0,2.58.46,3.58,1.3l-.18.1-5.97,3.44c-.3.18-.49.5-.49.85v8.4Zm1.37-2.95l3.25-1.87,3.26,1.87v3.75l-3.24,1.87-3.26-1.87v-3.75Z" style="fill:#fff;"/></g></svg>