<svg viewBox="0 0 70 70" xmlns="http://www.w3.org/2000/svg" width="56"><path fill="#3a85e6" d="M3.26 3.26h63.48v63.48H3.26z"></path><path fill="#fff" d="M57.95 30.13c1.2-3.65.8-7.64-1.15-10.96-2.92-5.09-8.79-7.7-14.53-6.46-5-5.55-13.55-6.02-19.1-1.02-1.78 1.57-3.07 3.61-3.81 5.87a13.38 13.38 0 00-8.92 6.46 13.487 13.487 0 001.65 15.84c-1.22 3.65-.81 7.64 1.13 10.96 2.92 5.09 8.81 7.7 14.53 6.46 2.55 2.87 6.22 4.5 10.07 4.5 5.89 0 11.09-3.78 12.88-9.38a13.38 13.38 0 008.92-6.46 13.524 13.524 0 00-1.67-15.79v-.02zM37.81 58.26c-2.33 0-4.63-.83-6.42-2.31l.31-.17 10.66-6.16c.54-.31.87-.89.87-1.52V33.07l4.5 2.61s.07.07.09.13v12.46c0 5.53-4.5 10.01-10.03 10.03l.02-.04zm-21.54-9.2a9.991 9.991 0 01-1.18-6.72l.31.19 10.68 6.16c.54.31 1.2.31 1.74 0l13.03-7.51v5.22s-.04.11-.07.13l-10.81 6.22c-4.79 2.78-10.94 1.11-13.71-3.68h.02zm-2.79-23.23a9.923 9.923 0 015.27-4.4v12.68c0 .61.33 1.2.85 1.52l12.97 7.48-4.5 2.61s-.11.04-.15 0L17.13 39.5c-4.78-2.78-6.44-8.9-3.68-13.71v.06h.02zm37.03 8.61l-13.03-7.57 4.5-2.59s.11-.04.15 0l10.79 6.22c4.79 2.78 6.44 8.9 3.68 13.71-1.17 2.02-3 3.57-5.18 4.39V35.92c0-.61-.37-1.18-.91-1.5v.02zm4.5-6.74l-.31-.19-10.64-6.2c-.54-.31-1.2-.31-1.76 0l-13.03 7.51V23.6s0-.11.07-.13l10.79-6.22c4.79-2.78 10.94-1.11 13.71 3.68 1.17 2.04 1.59 4.4 1.2 6.7v.04l-.04.04v-.02zM26.8 36.92l-4.5-2.59s-.07-.07-.09-.13V21.78c0-5.53 4.5-10.03 10.07-10.03 2.33 0 4.61.83 6.4 2.31l-.31.17-10.66 6.16c-.54.31-.87.89-.87 1.52V36.9l-.04.02zm2.44-5.27l5.81-3.35 5.81 3.35v6.7l-5.79 3.35-5.81-3.35v-6.7h-.02z"></path><path fill="none" d="M0 0h70v70H0z"></path></svg>